<svg version="1.1" xmlns="http://www.w3.org/2000/svg" fill-rule="evenodd" clip-rule="evenodd" height="1024" width="1024" viewBox="0 0 1024 1024"><path d="M866.461538 297.432615V275.692308a39.384615 39.384615 0 0 0-39.384615-39.384616H196.923077a39.384615 39.384615 0 0 0-39.384615 39.384616v22.843077l320.630153 222.916923a59.076923 59.076923 0 0 0 67.544616-0.039385L866.461538 297.432615z m0 48.049231l-298.180923 208.226462c-33.792 23.630769-78.769231 23.630769-112.600615 0.118154L157.538462 346.505846V748.307692a39.384615 39.384615 0 0 0 39.384615 39.384616h630.153846a39.384615 39.384615 0 0 0 39.384615-39.384616V345.442462zM196.923077 196.923077h630.153846a78.769231 78.769231 0 0 1 78.769231 78.769231v472.615384a78.769231 78.769231 0 0 1-78.769231 78.769231H196.923077a78.769231 78.769231 0 0 1-78.769231-78.769231V275.692308a78.769231 78.769231 0 0 1 78.769231-78.769231z"></path></svg>